HIERARCHY
ROOT hip
{
  OFFSET 0 0 0
  CHANNELS 6 Xposition Yposition Zposition Zrotation Yrotation Xrotation
  JOINT abdomen
  {
    OFFSET 0 20.6881 -0.73152
    CHANNELS 3 Zrotation Xrotation Yrotation
    JOINT chest
    {
      OFFSET 0 11.7043 -0.48768
      CHANNELS 3 Zrotation Xrotation Yrotation
      JOINT neck
      {
        OFFSET 0 22.1894 -2.19456
        CHANNELS 3 Zrotation Xrotation Yrotation
        JOINT head
        {
          OFFSET -0.24384 7.07133 1.2192
          CHANNELS 3 Zrotation Xrotation Yrotation
          JOINT leftEye
          {
            OFFSET 4.14528 8.04674 8.04672
            CHANNELS 3 Zrotation Xrotation Yrotation
            End Site
            {
              OFFSET 1 0 0
            }
          }
          JOINT rightEye
          {
            OFFSET -3.6576 8.04674 8.04672
            CHANNELS 3 Zrotation Xrotation Yrotation
            End Site
            {
              OFFSET 1 0 0
            }
          }
        }
      }
      JOINT rCollar
      {
        OFFSET -2.68224 19.2634 -4.8768
        CHANNELS 3 Zrotation Xrotation Yrotation
        JOINT rShldr
        {
          OFFSET -8.77824 -1.95073 1.46304
          CHANNELS 3 Zrotation Xrotation Yrotation
          JOINT rForeArm
          {
            OFFSET -28.1742 -1.7115 0.48768
            CHANNELS 3 Zrotation Xrotation Yrotation
            JOINT rHand
            {
              OFFSET -22.5879 0.773209 7.07136
              CHANNELS 3 Zrotation Xrotation Yrotation
              JOINT rThumb1
              {
                OFFSET -1.2192 -0.487915 3.41376
                CHANNELS 3 Zrotation Xrotation Yrotation
                JOINT rThumb2
                {
                  OFFSET -3.37035 -0.52449 3.41376
                  CHANNELS 3 Zrotation Xrotation Yrotation
                  End Site
                  {
                    OFFSET -1.78271 -1.18214 1.43049
                  }
                }
              }
              JOINT rIndex1
              {
                OFFSET -7.75947 0.938293 5.60832
                CHANNELS 3 Zrotation Xrotation Yrotation
                JOINT rIndex2
                {
                  OFFSET -2.54057 -0.884171 1.56538
                  CHANNELS 3 Zrotation Xrotation Yrotation
                  End Site
                  {
                    OFFSET -1.62519 -0.234802 1.16502
                  }
                }
              }
              JOINT rMid1
              {
                OFFSET -8.24714 1.18213 3.41376
                CHANNELS 3 Zrotation Xrotation Yrotation
                JOINT rMid2
                {
                  OFFSET -3.10165 -0.590103 1.0647
                  CHANNELS 3 Zrotation Xrotation Yrotation
                  End Site
                  {
                    OFFSET -2.48547 -0.328903 0.83742
                  }
                }
              }
              JOINT rRing1
              {
                OFFSET -8.82822 0.546677 1.51678
                CHANNELS 3 Zrotation Xrotation Yrotation
                JOINT rRing2
                {
                  OFFSET -2.60934 -0.819778 -0.0198488
                  CHANNELS 3 Zrotation Xrotation Yrotation
                  End Site
                  {
                    OFFSET -2.33842 -0.294052 0.168128
                  }
                }
              }
              JOINT rPinky1
              {
                OFFSET -8.27202 -0.0477905 -0.4584
                CHANNELS 3 Zrotation Xrotation Yrotation
                JOINT rPinky2
                {
                  OFFSET -1.82734 -0.647385 -0.700984
                  CHANNELS 3 Zrotation Xrotation Yrotation
                  End Site
                  {
                    OFFSET -1.69225 -0.51767 -0.607171
                  }
                }
              }
            }
          }
        }
      }
      JOINT lCollar
      {
        OFFSET 2.68224 19.2634 -4.8768
        CHANNELS 3 Zrotation Xrotation Yrotation
        JOINT lShldr
        {
          OFFSET 8.77824 -1.95073 1.46304
          CHANNELS 3 Zrotation Xrotation Yrotation
          JOINT lForeArm
          {
            OFFSET 28.1742 -1.7115 0.48768
            CHANNELS 3 Zrotation Xrotation Yrotation
            JOINT lHand
            {
              OFFSET 22.5879 0.773209 7.07136
              CHANNELS 3 Zrotation Xrotation Yrotation
              JOINT lThumb1
              {
                OFFSET 1.2192 -0.487915 3.41376
                CHANNELS 3 Zrotation Xrotation Yrotation
                JOINT lThumb2
                {
                  OFFSET 3.37035 -0.52449 3.41376
                  CHANNELS 3 Zrotation Xrotation Yrotation
                  End Site
                  {
                    OFFSET 1.78271 -1.18214 1.43049
                  }
                }
              }
              JOINT lIndex1
              {
                OFFSET 7.75947 0.938293 5.60832
                CHANNELS 3 Zrotation Xrotation Yrotation
                JOINT lIndex2
                {
                  OFFSET 2.54057 -0.884171 1.56538
                  CHANNELS 3 Zrotation Xrotation Yrotation
                  End Site
                  {
                    OFFSET 1.62519 -0.234802 1.16502
                  }
                }
              }
              JOINT lMid1
              {
                OFFSET 8.24714 1.18213 3.41376
                CHANNELS 3 Zrotation Xrotation Yrotation
                JOINT lMid2
                {
                  OFFSET 3.10165 -0.590103 1.0647
                  CHANNELS 3 Zrotation Xrotation Yrotation
                  End Site
                  {
                    OFFSET 2.48547 -0.328903 0.83742
                  }
                }
              }
              JOINT lRing1
              {
                OFFSET 8.82822 0.546677 1.51678
                CHANNELS 3 Zrotation Xrotation Yrotation
                JOINT lRing2
                {
                  OFFSET 2.60934 -0.819778 -0.0198488
                  CHANNELS 3 Zrotation Xrotation Yrotation
                  End Site
                  {
                    OFFSET 2.33842 -0.294052 0.168128
                  }
                }
              }
              JOINT lPinky1
              {
                OFFSET 8.27202 -0.0477905 -0.4584
                CHANNELS 3 Zrotation Xrotation Yrotation
                JOINT lPinky2
                {
                  OFFSET 1.82734 -0.647385 -0.700984
                  CHANNELS 3 Zrotation Xrotation Yrotation
                  End Site
                  {
                    OFFSET 1.69225 -0.51767 -0.607171
                  }
                }
              }
            }
          }
        }
      }
    }
  }
  JOINT rButtock
  {
    OFFSET -8.77824 4.35084 1.2192
    CHANNELS 3 Zrotation Xrotation Yrotation
    JOINT rThigh
    {
      OFFSET 0 -1.70687 -2.19456
      CHANNELS 3 Zrotation Xrotation Yrotation
      JOINT rShin
      {
        OFFSET 0 -36.8199 0.73152
        CHANNELS 3 Zrotation Xrotation Yrotation
        JOINT rFoot
        {
          OFFSET 0.73152 -45.1104 -5.12064
          CHANNELS 3 Zrotation Xrotation Yrotation
          End Site
          {
            OFFSET -1.1221 -3.69964 12.103
          }
        }
      }
    }
  }
  JOINT lButtock
  {
    OFFSET 8.77824 4.35084 1.2192
    CHANNELS 3 Zrotation Xrotation Yrotation
    JOINT lThigh
    {
      OFFSET 0 -1.70687 -2.19456
      CHANNELS 3 Zrotation Xrotation Yrotation
      JOINT lShin
      {
        OFFSET 0 -36.8199 0.73152
        CHANNELS 3 Zrotation Xrotation Yrotation
        JOINT lFoot
        {
          OFFSET -0.73152 -45.1104 -5.12064
          CHANNELS 3 Zrotation Xrotation Yrotation
          End Site
          {
            OFFSET 1.1221 -3.69964 12.103
          }
        }
      }
    }
  }
}
MOTION
Frames:	4
Frame Time:	0.03333
24.5017 80.77720000000001 52.0004 45.744241 -38.379236 -38.250565 -11.020284 35.342233 -45.503032 4.139681 -12.165241 60.783759 12.887067 20.838131 97.834652 -33.514573 26.137197 -64.690845 0.001082 0.0 0.003293 0.002037 0.0 0.002857 -34.240988 60.519517 36.741384 -166.358623 -8.818943 130.30022 166.737382 38.617435 -63.482456 -16.257388 46.70034 5.585674 178.568576 -18.806069 89.029435 -145.508886 10.993429 77.785382 -67.286616 43.229483 55.184357 105.887784 -65.086696 55.947496 1.860276 -5.569347 -0.967493 -0.998374 11.787711 1.983864 -0.010392 3.750628 1.178756 -155.944893 -4.653675 172.421321 -15.788289 -28.626597 -15.069489 51.018548 84.27063 -12.761633 -1.255461 -8.30093 1.753011 107.745226 -37.154331 170.739855 169.853583 57.830374 109.066927 8.983994 -14.421475 4.669561 -7.602175 -7.59383 0.671966 16.762022 16.391565 -10.074867 160.063996 -33.097964 -122.701727 179.439409 -47.854058 -113.012988 170.556792 -37.499282 -145.320315 -2.065225 3.008183 -0.758524 145.123932 1.734766 179.673961 -11.860069 51.517001 2.904946 136.22219 -11.071736 133.565723 -13.698058 32.551369 -5.070366 -179.980302 75.749409 -0.013493 131.251829 36.589942 152.121465 48.178891 -20.424406 -59.983543 -174.528647 -82.682345 98.546912 -179.989349 75.748353 -0.009506 -95.354348 -53.443365 -157.394007 166.597124 -29.08428 83.944203 158.499916 68.176471 127.220988
24.171400000000002 79.1914 51.819199999999995 38.875719 -41.043342 -34.443126 -9.139393 37.680951 -3.114177 -4.591874 -12.892545 19.026917 -8.233247 24.870282 -97.012312 39.258297 3.893346 122.592337 -0.000532 -0.0 0.001012 -0.000532 -0.0 0.001012 -5.068961 22.526404 6.136557 -122.878436 8.324662 146.320546 12.438013 16.606149 -142.674548 168.862407 -17.241501 144.171319 -171.290255 -8.973901 89.952006 -169.753459 -7.713017 89.299783 23.332908 -41.169786 -5.67828 4.463478 16.017272 1.311564 -163.055108 -14.19143 144.231686 -163.616463 -5.683411 143.055843 -145.116565 0.006463 -179.131125 11.370586 16.483465 -7.074345 -140.878661 -0.272617 -137.929469 -70.868313 -53.129702 -70.882944 0.798425 4.536541 -1.041233 -61.597915 -0.353595 -4.00766 30.422047 -27.592724 -65.332027 1.386195 -40.902986 6.358373 86.680679 38.58926 -48.560501 -11.432645 -21.903743 -23.071624 -30.736445 -51.267925 3.673222 4.63222 27.675541 -5.910383 131.093141 45.958523 -120.280413 2.278574 15.280274 -3.078111 136.88125 -45.280208 160.411505 152.9683 25.235897 -176.280667 139.686835 -3.276817 136.821281 17.163058 -33.169978 19.272108 -179.997616 75.748821 -0.001209 135.440659 41.606352 -17.170195 -44.583427 29.620593 91.840901 -175.158025 -26.230572 67.810865 -179.997616 75.748821 -0.001209 -97.151493 -57.474588 167.803548 139.036276 -11.855772 -91.439258 -94.782736 -35.647881 17.191314
24.1329 77.8288 51.7622 35.111359 -42.123461 -32.726068 -5.359346 34.556252 -172.09001 7.415068 7.38749 -171.127521 -8.723737 19.450919 -64.088511 31.498545 -13.576607 95.549345 0.002102 -0.0 -0.0009 -0.00352 0.0 -0.000241 0.788435 -5.016725 -1.079518 48.223925 3.117284 13.256119 -0.860151 33.150921 108.895821 -7.700274 28.174154 1.476013 -18.97683 16.997398 5.669441 -7.747639 6.718279 16.496941 -156.334737 -26.404787 122.347577 -4.125109 28.17289 -1.851607 -7.995344 20.009453 5.326261 0.518375 7.985695 1.244118 -145.014195 -4.921622 -177.577295 -154.841304 -2.073483 -178.978996 -146.014498 14.784905 -142.567229 -134.060814 -19.151619 -130.799181 125.777893 57.784579 -129.52132 -94.13646 -35.11174 -98.332666 9.924696 -53.638339 -74.689336 7.384592 -19.955262 5.295002 -18.923616 -18.621022 -0.202785 144.705955 -52.652156 -131.452177 168.621309 -46.512852 -121.624438 -148.652743 -66.438178 -87.342456 11.588494 26.877414 -8.131225 162.217074 -1.861867 -143.001441 145.116912 -0.16589 179.076974 154.31651 -11.03901 177.728004 141.890742 2.416348 138.862111 9.676313 -23.763929 12.321363 -179.991166 75.75104 -0.008393 137.084509 43.803124 51.93637 37.671498 49.752635 49.365014 88.234274 77.069418 179.204165 -179.988404 75.748288 -0.011179 -99.94351 -61.164659 179.523203 140.936746 -16.763827 -109.454852 -159.453303 -60.405605 -35.426964
24.2591 76.7388 51.544000000000004 34.698717 -41.766837 -32.981241 -8.681833 39.997195 30.146604 -10.132028 -9.370564 -11.6013 11.023264 17.211291 72.617275 -35.967215 7.724999 -42.526327 0.000693 0.0 0.002126 3.2e-05 -0.0 -0.00356 4.088708 -39.85142 -7.676385 33.744405 -49.539383 -17.354072 51.958773 -69.307002 -95.327397 171.618612 -10.167213 145.064052 0.233146 -0.229178 -0.034778 -132.386718 -30.897503 116.549234 -146.298407 -7.952618 119.133289 -160.890923 -12.682042 119.408855 -157.69714 2.181841 141.678408 -2.169692 14.592537 3.014417 0.003329 2.303437 0.723442 9.676812 6.016705 0.714328 -153.557913 42.709204 -148.521254 -46.902386 -50.091579 -46.808061 -3.7554 -60.27269 12.460669 173.200561 37.949344 134.804688 130.951744 -58.474032 50.124243 3.439092 -34.460376 6.331019 6.775246 6.526326 -1.417501 -17.008166 -21.21191 7.349761 12.881357 17.716416 -8.553124 -5.989622 4.890187 -0.119867 -170.714694 -68.352213 -135.796367 -76.299581 -77.372816 -48.261171 1.8696 26.280174 -8.868541 -4.942105 30.841431 -4.356505 11.440563 -22.805035 10.856586 -126.915635 86.913228 86.947038 179.964955 75.74859 0.025815 139.640635 43.491147 -30.490978 -53.29903 29.930867 128.372541 -26.434342 28.426094 -70.511433 179.984737 75.750044 0.012169 -106.266734 -58.606573 -20.030346 -149.03093 10.774672 -90.169156 -42.070453 1.541433 178.297525
